<svg xmlns="http://www.w3.org/2000/svg" viewBox="0 0 300 300" width="600" height="600" font-family="'Bricolage Grotesque','Segoe UI',Arial,sans-serif" xmlns:c2pa="http://c2pa.org/manifest"><metadata><c2pa:manifest>AAAWgmp1bWIAAAAeanVtZGMycGEAEQAQgAAAqgA4m3EDYzJwYQAAABZcanVtYgAAAEdqdW1kYzJtYQARABCAAACqADibcQN1cm46YzJwYTpjZWI3NWQ4Ni01MzEyLTRlODMtYmQ0My05YjE2MDVlZGM2ZDEAAAADl2p1bWIAAAApanVtZGMyYXMAEQAQgAAAqgA4m3EDYzJwYS5hc3NlcnRpb25zAAAAALxqdW1iAAAARGp1bWRjYm9yABEAEIAAAKoAOJtxE2MycGEuaW5ncmVkaWVudC52MwAAAAAYYzJzaJlVcSMB9Nnd/RvsRt0+SBoAAABwY2JvcqNpZGM6Zm9ybWF0bWltYWdlL3N2Zyt4bWxqaW5zdGFuY2VJRHgseG1wOmlpZDo3YjdjNzIxMC1mZWYzLTQ1YTEtYjgyNC1hZTRlZjNhMDQ2MzNscmVsYXRpb25zaGlwaHBhcmVudE9mAAAB4mp1bWIAAABBanVtZGNib3IAEQAQgAAAqgA4m3ETYzJwYS5hY3Rpb25zLnYyAAAAABhjMnNoHy6cksWAIXGyNlpADqH8VwAAAZljYm9yomdhY3Rpb25zgqJmYWN0aW9ua2MycGEub3BlbmVkanBhcmFtZXRlcnOha2luZ3JlZGllbnRzgaJjdXJseC1zZWxmI2p1bWJmPWMycGEuYXNzZXJ0aW9ucy9jMnBhLmluZ3JlZGllbnQudjNkaGFzaFggNJNjzFT6HlQDVyQh6IcULt7h7cl8jFsY/IXNBaFCgeWkZmFjdGlvbngdY29tLmFudGhyb3BpYy5jbGF1ZGUucHJvdmlkZWRqcGFyYW1ldGVyc6F4H2NvbS5hbnRocm9waWMub3JpZ2luLWNvbmZpZGVuY2VndW5rbm93bmtkZXNjcmlwdGlvbnhmQ2xhdWRlIHByb3ZpZGVkIHRoaXMgZmlsZSBhdCB0aGUgcmVxdWVzdCBvZiBhIHVzZXIgYW5kIG1heSBoYXZlIGNyZWF0ZWQgb3IgbW9kaWZpZWQgdGhlIGZpbGUgY29udGVudHMubXNvZnR3YXJlQWdlbnShZG5hbWVmQ2xhdWRlcmFsbEFjdGlvbnNJbmNsdWRlZPUAAADIanVtYgAAAEBqdW1kY2JvcgARABCAAACqADibcRNjMnBhLmhhc2guZGF0YQAAAAAYYzJzaIoVWHGMQpkY75hlJ6J95BUAAACAY2JvcqVjYWxnZnNoYTI1NmNwYWRNAAAAAAAAAAAAAAAAAGRoYXNoWCA0B0bwYQsp4nRTVYqCfe05QYwbicRQA4CNvdytH08FqGRuYW1lbmp1bWJmIG1hbmlmZXN0amV4Y2x1c2lvbnOBomVzdGFydBjWZmxlbmd0aBkeBAAAAj5qdW1iAAAAJ2p1bWRjMmNsABEAEIAAAKoAOJtxA2MycGEuY2xhaW0udjIAAAACD2Nib3KlY2FsZ2ZzaGEyNTZpc2lnbmF0dXJleE1zZWxmI2p1bWJmPS9jMnBhL3VybjpjMnBhOmNlYjc1ZDg2LTUzMTItNGU4My1iZDQzLTliMTYwNWVkYzZkMS9jMnBhLnNpZ25hdHVyZWppbnN0YW5jZUlEeCx4bXA6aWlkOjMzYTc2NzQ5LTU5OTQtNGRiZi04MjZiLWM5ZmMwMTZiOTBlZHJjcmVhdGVkX2Fzc2VydGlvbnODomN1cmx4LXNlbGYjanVtYmY9YzJwYS5hc3NlcnRpb25zL2MycGEuaW5ncmVkaWVudC52M2RoYXNoWCA0k2PMVPoeVANXJCHohxQu3uHtyXyMWxj8hc0FoUKB5aJjdXJseCpzZWxmI2p1bWJmPWMycGEuYXNzZXJ0aW9ucy9jMnBhLmFjdGlvbnMudjJkaGFzaFggmYpY+eDXUiWTIFtByfiDTCPkmpx1agzbyUVY11ApcVWiY3VybHgpc2VsZiNqdW1iZj1jMnBhLmFzc2VydGlvbnMvYzJwYS5oYXNoLmRhdGFkaGFzaFggMpV0sMWv0ahNRgfGViT4Yk4BaCzleqimNefRJIn3rsl0Y2xhaW1fZ2VuZXJhdG9yX2luZm+jZG5hbWVvQW50aHJvcGljIEZpbGVzZ3ZlcnNpb25lMS4wLjBrc3BlY1ZlcnNpb25lMi40LjAAABA4anVtYgAAAChqdW1kYzJjcwARABCAAACqADibcQNjMnBhLnNpZ25hdHVyZQAAABAIY2JvctKEWQISogEmGCFZAgowggIGMIIBjaADAgECAhRA5aAK7sI50L64g/oGQgU9Z1UTADAKBggqhkjOPQQDAzBJMRcwFQYDVQQKEw5BbnRocm9waWMsIFBCQzEuMCwGA1UEAxMlQW50aHJvcGljIENvbnRlbnQgQ3JlZGVudGlhbHMgUm9vdCBDQTAeFw0yNjA4MDcxODQzNTZaFw0yODA4MDYxOTQzNTZaMEQxFzAVBgNVBAoTDkFudGhyb3BpYywgUEJDMSkwJwYDVQQDEyBBbnRocm9waWMgQ2xhdWRlIENvbnRlbnQgU2lnbmluZzBZMBMGByqGSM49AgEGCCqGSM49AwEHA0IABJh6CmvLUBgFFNU0vUKlOVtE6djd17L5SuwX0LemFisBM3dkd/3cyjxFA3Qo5S46fX0/ihY0VZ7mfb9KF703t5OjWDBWMA4GA1UdDwEB/wQEAwIHgDAVBgNVHSUEDjAMBgorBgEEAYPoXgIBMAwGA1UdEwEB/wQCMAAwHwYDVR0jBBgwFoAUzlHiBIFOZFsj+OPEz5o+nMHXXMIwCgYIKoZIzj0EAwMDZwAwZAIwMXMdFJ4BetLLVY7ORuE9noqbbAZOZn/aArXyTwFAZfKrPzxF2vPoJNf1+UCdg1XGAjBwX1zd9WGqYkqmL5SFqw1QySjr1zJfpJM9+1rdDwSPLMOPOjKuiXjoU/pUUeG9RwmhY3BhZFkNngAAAAAAAAAAAAAAAAAAAAAAAAAAAAAAAAAAAAAAAAAAAAAAAAAAAAAAAAAAAAAAAAAAAAAAAAAAAAAAAAAAAAAAAAAAAAAAAAAAAAAAAAAAAAAAAAAAAAAAAAAAAAAAAAAAAAAAAAAAAAAAAAAAAAAAAAAAAAAAAAAAAAAAAAAAAAAAAAAAAAAAAAAAAAAAAAAAAAAAAAAAAAAAAAAAAAAAAAAAAAAAAAAAAAAAAAAAAAAAAAAAAAAAAAAAAAAAAAAAAAAAAAAAAAAAAAAAAAAAAAAAAAAAAAAAAAAAAAAAAAAAAAAAAAAAAAAAAAAAAAAAAAAAAAAAAAAAAAAAAAAAAAAAAAAAAAAAAAAAAAAAAAAAAAAAAAAAAAAAAAAAAAAAAAAAAAAAAAAAAAAAAAAAAAAAAAAAAAAAAAAAAAAAAAAAAAAAAAAAAAAAAAAAAAAAAAAAAAAAAAAAAAAAAAAAAAAAAAAAAAAAAAAAAAAAAAAAAAAAAAAAAAAAAAAAAAAAAAAAAAAAAAAAAAAAAAAAAAAAAAAAAAAAAAAAAAAAAAAAAAAAAAAAAAAAAAAAAAAAAAAAAAAAAAAAAAAAAAAAAAAAAAAAAAAAAAAAAAAAAAAAAAAAAAAAAAAAAAAAAAAAAAAAAAAAAAAAAAAAAAAAAAAAAAAAAAAAAAAAAAAAAAAAAAAAAAAAAAAAAAAAAAAAAAAAAAAAAAAAAAAAAAAAAAAAAAAAAAAAAAAAAAAAAAAAAAAAAAAAAAAAAAAAAAAAAAAAAAAAAAAAAAAAAAAAAAAAAAAAAAAAAAAAAAAAAAAAAAAAAAAAAAAAAAAAAAAAAAAAAAAAAAAAAAAAAAAAAAAAAAAAAAAAAAAAAAAAAAAAAAAAAAAAAAAAAAAAAAAAAAAAAAAAAAAAAAAAAAAAAAAAAAAAAAAAAAAAAAAAAAAAAAAAAAAAAAAAAAAAAAAAAAAAAAAAAAAAAAAAAAAAAAAAAAAAAAAAAAAAAAAAAAAAAAAAAAAAAAAAAAAAAAAAAAAAAAAAAAAAAAAAAAAAAAAAAAAAAAAAAAAAAAAAAAAAAAAAAAAAAAAAAAAAAAAAAAAAAAAAAAAAAAAAAAAAAAAAAAAAAAAAAAAAAAAAAAAAAAAAAAAAAAAAAAAAAAAAAAAAAAAAAAAAAAAAAAAAAAAAAAAAAAAAAAAAAAAAAAAAAAAAAAAAAAAAAAAAAAAAAAAAAAAAAAAAAAAAAAAAAAAAAAAAAAAAAAAAAAAAAAAAAAAAAAAAAAAAAAAAAAAAAAAAAAAAAAAAAAAAAAAAAAAAAAAAAAAAAAAAAAAAAAAAAAAAAAAAAAAAAAAAAAAAAAAAAAAAAAAAAAAAAAAAAAAAAAAAAAAAAAAAAAAAAAAAAAAAAAAAAAAAAAAAAAAAAAAAAAAAAAAAAAAAAAAAAAAAAAAAAAAAAAAAAAAAAAAAAAAAAAAAAAAAAAAAAAAAAAAAAAAAAAAAAAAAAAAAAAAAAAAAAAAAAAAAAAAAAAAAAAAAAAAAAAAAAAAAAAAAAAAAAAAAAAAAAAAAAAAAAAAAAAAAAAAAAAAAAAAAAAAAAAAAAAAAAAAAAAAAAAAAAAAAAAAAAAAAAAAAAAAAAAAAAAAAAAAAAAAAAAAAAAAAAAAAAAAAAAAAAAAAAAAAAAAAAAAAAAAAAAAAAAAAAAAAAAAAAAAAAAAAAAAAAAAAAAAAAAAAAAAAAAAAAAAAAAAAAAAAAAAAAAAAAAAAAAAAAAAAAAAAAAAAAAAAAAAAAAAAAAAAAAAAAAAAAAAAAAAAAAAAAAAAAAAAAAAAAAAAAAAAAAAAAAAAAAAAAAAAAAAAAAAAAAAAAAAAAAAAAAAAAAAAAAAAAAAAAAAAAAAAAAAAAAAAAAAAAAAAAAAAAAAAAAAAAAAAAAAAAAAAAAAAAAAAAAAAAAAAAAAAAAAAAAAAAAAAAAAAAAAAAAAAAAAAAAAAAAAAAAAAAAAAAAAAAAAAAAAAAAAAAAAAAAAAAAAAAAAAAAAAAAAAAAAAAAAAAAAAAAAAAAAAAAAAAAAAAAAAAAAAAAAAAAAAAAAAAAAAAAAAAAAAAAAAAAAAAAAAAAAAAAAAAAAAAAAAAAAAAAAAAAAAAAAAAAAAAAAAAAAAAAAAAAAAAAAAAAAAAAAAAAAAAAAAAAAAAAAAAAAAAAAAAAAAAAAAAAAAAAAAAAAAAAAAAAAAAAAAAAAAAAAAAAAAAAAAAAAAAAAAAAAAAAAAAAAAAAAAAAAAAAAAAAAAAAAAAAAAAAAAAAAAAAAAAAAAAAAAAAAAAAAAAAAAAAAAAAAAAAAAAAAAAAAAAAAAAAAAAAAAAAAAAAAAAAAAAAAAAAAAAAAAAAAAAAAAAAAAAAAAAAAAAAAAAAAAAAAAAAAAAAAAAAAAAAAAAAAAAAAAAAAAAAAAAAAAAAAAAAAAAAAAAAAAAAAAAAAAAAAAAAAAAAAAAAAAAAAAAAAAAAAAAAAAAAAAAAAAAAAAAAAAAAAAAAAAAAAAAAAAAAAAAAAAAAAAAAAAAAAAAAAAAAAAAAAAAAAAAAAAAAAAAAAAAAAAAAAAAAAAAAAAAAAAAAAAAAAAAAAAAAAAAAAAAAAAAAAAAAAAAAAAAAAAAAAAAAAAAAAAAAAAAAAAAAAAAAAAAAAAAAAAAAAAAAAAAAAAAAAAAAAAAAAAAAAAAAAAAAAAAAAAAAAAAAAAAAAAAAAAAAAAAAAAAAAAAAAAAAAAAAAAAAAAAAAAAAAAAAAAAAAAAAAAAAAAAAAAAAAAAAAAAAAAAAAAAAAAAAAAAAAAAAAAAAAAAAAAAAAAAAAAAAAAAAAAAAAAAAAAAAAAAAAAAAAAAAAAAAAAAAAAAAAAAAAAAAAAAAAAAAAAAAAAAAAAAAAAAAAAAAAAAAAAAAAAAAAAAAAAAAAAAAAAAAAAAAAAAAAAAAAAAAAAAAAAAAAAAAAAAAAAAAAAAAAAAAAAAAAAAAAAAAAAAAAAAAAAAAAAAAAAAAAAAAAAAAAAAAAAAAAAAAAAAAAAAAAAAAAAAAAAAAAAAAAAAAAAAAAAAAAAAAAAAAAAAAAAAAAAAAAAAAAAAAAAAAAAAAAAAAAAAAAAAAAAAAAAAAAAAAAAAAAAAAAAAAAAAAAAAAAAAAAAAAAAAAAAAAAAAAAAAAAAAAAAAAAAAAAAAAAAAAAAAAAAAAAAAAAAAAAAAAAAAAAAAAAAAAAAAAAAAAAAAAAAAAAAAAAAAAAAAAAAAAAAAAAAAAAAAAAAAAAAAAAAAAAAAAAAAAAAAAAAAAAAAAAAAAAAAAAAAAAAAAAAAAAAAAAAAAAAAAAAAAAAAAAAAAAAAAAAAAAAAAAAAAAAAAAAAAAAAAAAAAAAAAAAAAAAAAAAAAAAAAAAAAAAAAAAAAAAAAAAAAAAAAAAAAAAAAAAAAAAAAAAAAAAAAAAAAAAAAAAAAAAAAAAAAAAAAAAAAAAAAAAAAAAAAAAAAAAAAAAAAAAAAAAAAAAAAAAAAAAAAAAAAAAAAAAAAAAAAAAAAAAAAAAAAAAAAAAAAAAAAAAAAAAAAAAAAAAAAAAAAAAAAAAAAAAAAAAAAAAAAAAAAAAAAAAAAAAAAAAAAAAAAAAAAAAAAAAAAAAAAAAAAAAAAAAAAAAAAAAAAAAAAAAAAAAAAAAAAAAAAAAAAAAAAAAAAAAAAAAAAAAAAAAAAAAAAAAAAAAAAAAAAAAAAAAAAAAAAAAAAAAAAAAAAAAAAAAAAAAAAAAAAAAAAAAAAAAAAAAAAAAAAAAAAAAAAAAAAAAAAAAAAAAAAAAAAAAAAAAAAAAAAAAAAAAAAAAAAAAAAAAAAAAAAAAAAAAAAAAAAAAAAAAAAAAAAAAAAAAAAAAAAAAAAAAAAAAAAAAAAAAAAAAAAAAAAAAAAAAAAAAAAAAAAAAAAAAAAAAAAAAAAAAAAAAAAAAAAAAAAAAAAAAAAAAAAAAAAAAAAAAAAAAAAAAAAAAAAAAAAAAAAAAAAAAAAAAAAAAAAAAAAAAAAAAAAAAAAAAAAAAAAAAAAAAAAAAAAAAAAAAAAAAAAAAAAAAAAAAAAAAAAAAAAAAAAAAAAAAAAAAAAAAAAAAAAAAAAAAAAAAAAAAAAAAAAAAAAAAAAAAAAAAAAAAAAAAAAAAAAAAAAAAAAAAAAAAAAAAAAAAAAAAAAAAAAAAAAAAAAAAAAAAAAAAAAAAAAAAAAAAAAAAAAAAAAAAAAAAAAAAAAAAAAAAAAAAAAAAAAAAAAAAAAAAAAAAAAAAAAAAAAAAAAAAAAAAAAAAAAAAAAAAAAAAAAAAAAAAAAAAAAAAAAAAAAAAAAAAAAAAAAAAAAAAAAAAAAAAAAAAAAAAAAAAAAAAAAAAAAAAAAAAAAAAAAAAAAAAAAAAAAAAAAAAAAAAAAAAAAAAAAAAAAAAAAAAAAAAAAAAAAAAAAAAAAAAAAAAAAAAAAAAAAAAAAAAAAAAAAAAAAAAAAAAAAAAAAAAAAAAAAAAAAAAAAAAAAAAAAAAAAAAAAAAAAAAAAAAAAAAAAAAAAAAAAAAAAAAAAAAAAAAAAAAAAAAAAAAAAAAAAAAAAAAAAAAAAAAAAAAAAAAAAAAAAAAAAAAAAAAAAAAAAAAAAAAAAAAAAAAAAAAAAAAAAAAAPZYQNWnZhLETt1aZDj/r2kPYNVQ2ujInghC5S89Txkf0jOGDUT8MOaM0xPv6TLcE7qSbMM8nOw3KU+RYl57OcKKddY=</c2pa:manifest></metadata><ellipse cx="150" cy="268" rx="80" ry="9" fill="#000" opacity=".13"/><path d="M80 66q0-10 10-10h120q10 0 10 10v186q0 12-12 12H92q-12 0-12-12z" fill="#D4A017"/><path d="M80 66q0-10 10-10h120q10 0 10 10v16H80z" fill="#997311"/><path d="M88 59v20M96 59v20M104 59v20M112 59v20M120 59v20M128 59v20M136 59v20M144 59v20M152 59v20M160 59v20M168 59v20M176 59v20M184 59v20M192 59v20M200 59v20M208 59v20" stroke="#D4A017" stroke-opacity=".55" stroke-width="2"/><path d="M92 92v158" stroke="#fff" stroke-opacity=".18" stroke-width="8" stroke-linecap="round"/><rect x="95" y="94" width="110" height="90" rx="10" fill="#fff" fill-opacity=".96"/><rect x="187" y="102" width="11" height="11" fill="none" stroke="#0a8a3a" stroke-width="1.6"/><circle cx="192.5" cy="107.5" r="3" fill="#0a8a3a"/><text x="150" y="122" text-anchor="middle" font-size="9.5" font-weight="600" fill="#D4A017">Sunmill</text><text x="150" y="145" text-anchor="middle" font-size="18" font-weight="800" fill="#17261E">Besan</text><text x="150" y="164" text-anchor="middle" font-size="12" font-weight="600" fill="#5E6F65">Gram Flour</text><clipPath id="k72891"><rect x="95" y="194" width="110" height="60" rx="8"/></clipPath><g clip-path="url(#k72891)"><rect x="95" y="194" width="110" height="60" fill="#d3b75a"/><circle cx="140.6" cy="253.9" r="2.1" fill="#F0D066" /><circle cx="107.8" cy="245.9" r="1.9" fill="#F0D066" /><circle cx="169.4" cy="217.8" r="1.9" fill="#F0D066" /><circle cx="151.2" cy="194.6" r="2.7" fill="#F0D066" /><circle cx="99.3" cy="201.2" r="2.0" fill="#F0D066" /><circle cx="169.3" cy="202.6" r="1.9" fill="#F0D066" /><circle cx="187.1" cy="224.0" r="2.8" fill="#F0D066" /><circle cx="198.5" cy="230.1" r="2.7" fill="#F0D066" /><circle cx="139.4" cy="246.2" r="2.2" fill="#F0D066" /><circle cx="165.6" cy="237.1" r="1.6" fill="#F0D066" /><circle cx="102.9" cy="227.9" r="1.8" fill="#F0D066" /><circle cx="107.2" cy="243.5" r="1.7" fill="#F0D066" /><circle cx="114.3" cy="249.0" r="2.1" fill="#F0D066" /><circle cx="170.0" cy="209.3" r="2.1" fill="#F0D066" /><circle cx="100.2" cy="209.6" r="2.3" fill="#F0D066" /><circle cx="170.7" cy="214.6" r="1.8" fill="#F0D066" /><circle cx="97.4" cy="249.6" r="2.7" fill="#F0D066" /><circle cx="146.0" cy="219.4" r="2.8" fill="#F0D066" /><circle cx="142.4" cy="209.0" r="2.6" fill="#F0D066" /><circle cx="132.4" cy="243.5" r="2.6" fill="#F0D066" /><circle cx="161.9" cy="227.9" r="2.2" fill="#F0D066" /><circle cx="166.7" cy="247.2" r="1.9" fill="#F0D066" /><circle cx="192.6" cy="206.3" r="2.2" fill="#F0D066" /><circle cx="175.5" cy="250.2" r="2.4" fill="#F0D066" /><circle cx="161.3" cy="224.1" r="1.6" fill="#F0D066" /><circle cx="195.6" cy="212.7" r="1.8" fill="#F0D066" /><circle cx="104.4" cy="241.3" r="2.1" fill="#F0D066" /><circle cx="153.5" cy="214.7" r="1.9" fill="#F0D066" /><circle cx="168.8" cy="218.0" r="1.6" fill="#F0D066" /><circle cx="196.0" cy="216.1" r="1.9" fill="#F0D066" /><circle cx="171.0" cy="234.1" r="1.8" fill="#F0D066" /><circle cx="139.6" cy="236.9" r="2.1" fill="#F0D066" /><circle cx="147.8" cy="249.7" r="1.9" fill="#F0D066" /><circle cx="131.2" cy="237.2" r="1.8" fill="#F0D066" /><circle cx="135.7" cy="224.7" r="2.2" fill="#F0D066" /><circle cx="97.2" cy="237.0" r="2.6" fill="#F0D066" /><circle cx="171.6" cy="239.1" r="2.0" fill="#F0D066" /><circle cx="184.5" cy="196.1" r="2.4" fill="#F0D066" /><circle cx="181.9" cy="253.0" r="1.6" fill="#F0D066" /><circle cx="99.7" cy="194.8" r="2.8" fill="#F0D066" /><circle cx="203.5" cy="226.4" r="2.8" fill="#F0D066" /><circle cx="99.3" cy="252.8" r="1.9" fill="#F0D066" /><circle cx="163.0" cy="239.2" r="2.0" fill="#F0D066" /><circle cx="110.2" cy="210.3" r="2.5" fill="#F0D066" /><circle cx="96.9" cy="251.4" r="2.4" fill="#F0D066" /><circle cx="169.0" cy="207.3" r="2.5" fill="#F0D066" /><circle cx="152.1" cy="223.1" r="1.8" fill="#F0D066" /><circle cx="202.3" cy="203.7" r="2.3" fill="#F0D066" /><circle cx="145.2" cy="234.2" r="1.9" fill="#F0D066" /><circle cx="136.8" cy="219.5" r="2.5" fill="#F0D066" /><circle cx="112.8" cy="244.7" r="1.9" fill="#F0D066" /><circle cx="119.1" cy="214.8" r="2.0" fill="#F0D066" /><circle cx="201.6" cy="214.8" r="2.1" fill="#F0D066" /><circle cx="186.0" cy="209.6" r="2.7" fill="#F0D066" /><circle cx="118.3" cy="224.2" r="1.8" fill="#F0D066" /><circle cx="154.1" cy="223.7" r="2.4" fill="#F0D066" /><circle cx="119.5" cy="233.1" r="2.5" fill="#F0D066" /><circle cx="170.1" cy="217.4" r="2.8" fill="#F0D066" /><circle cx="131.9" cy="201.5" r="2.3" fill="#F0D066" /><circle cx="160.6" cy="210.4" r="1.7" fill="#F0D066" /><circle cx="192.2" cy="209.2" r="2.8" fill="#F0D066" /><circle cx="162.3" cy="222.9" r="2.2" fill="#F0D066" /><circle cx="117.0" cy="216.5" r="1.8" fill="#F0D066" /><circle cx="101.9" cy="214.9" r="2.1" fill="#F0D066" /><circle cx="163.0" cy="243.2" r="2.4" fill="#F0D066" /><circle cx="126.1" cy="206.3" r="1.8" fill="#F0D066" /><circle cx="146.9" cy="249.3" r="2.4" fill="#F0D066" /><circle cx="161.4" cy="217.1" r="1.9" fill="#F0D066" /><circle cx="105.3" cy="194.8" r="2.2" fill="#F0D066" /><circle cx="134.6" cy="207.4" r="2.6" fill="#F0D066" /><circle cx="185.0" cy="219.9" r="2.3" fill="#F0D066" /><circle cx="192.3" cy="197.2" r="1.9" fill="#F0D066" /><circle cx="202.5" cy="224.3" r="1.8" fill="#F0D066" /><circle cx="151.3" cy="206.3" r="2.8" fill="#F0D066" /><circle cx="194.5" cy="228.2" r="2.5" fill="#F0D066" /><circle cx="158.1" cy="195.0" r="1.7" fill="#F0D066" /><circle cx="197.8" cy="251.6" r="2.2" fill="#F0D066" /><circle cx="139.4" cy="243.0" r="1.8" fill="#F0D066" /><circle cx="138.9" cy="194.3" r="2.5" fill="#F0D066" /><circle cx="132.0" cy="250.5" r="2.2" fill="#F0D066" /></g><rect x="95" y="194" width="110" height="60" rx="8" fill="none" stroke="#fff" stroke-opacity=".7" stroke-width="2"/></svg>
