<svg xmlns="http://www.w3.org/2000/svg" viewBox="0 0 300 300" width="600" height="600" font-family="'Bricolage Grotesque','Segoe UI',Arial,sans-serif" xmlns:c2pa="http://c2pa.org/manifest"><metadata><c2pa:manifest>AAAWgmp1bWIAAAAeanVtZGMycGEAEQAQgAAAqgA4m3EDYzJwYQAAABZcanVtYgAAAEdqdW1kYzJtYQARABCAAACqADibcQN1cm46YzJwYTpiNTgxNjAzYi1jZGJkLTRmNDctYTBlNy1lNjAwYTI5NzY5M2UAAAADl2p1bWIAAAApanVtZGMyYXMAEQAQgAAAqgA4m3EDYzJwYS5hc3NlcnRpb25zAAAAALxqdW1iAAAARGp1bWRjYm9yABEAEIAAAKoAOJtxE2MycGEuaW5ncmVkaWVudC52MwAAAAAYYzJzaFDNOivzY4GlxnqY6GERhmMAAABwY2JvcqNpZGM6Zm9ybWF0bWltYWdlL3N2Zyt4bWxqaW5zdGFuY2VJRHgseG1wOmlpZDphODM1N2E2My0zZjg2LTQwYTEtOTI2OS1jMjY5NGFmNjNiNzJscmVsYXRpb25zaGlwaHBhcmVudE9mAAAB4mp1bWIAAABBanVtZGNib3IAEQAQgAAAqgA4m3ETYzJwYS5hY3Rpb25zLnYyAAAAABhjMnNobBGBub46Ydj2C8yMvmtw9wAAAZljYm9yomdhY3Rpb25zgqJmYWN0aW9ua2MycGEub3BlbmVkanBhcmFtZXRlcnOha2luZ3JlZGllbnRzgaJjdXJseC1zZWxmI2p1bWJmPWMycGEuYXNzZXJ0aW9ucy9jMnBhLmluZ3JlZGllbnQudjNkaGFzaFggqQZndHrh0c0v0IogFjFepH94ycK5WyIhbLFh4p/zorikZmFjdGlvbngdY29tLmFudGhyb3BpYy5jbGF1ZGUucHJvdmlkZWRqcGFyYW1ldGVyc6F4H2NvbS5hbnRocm9waWMub3JpZ2luLWNvbmZpZGVuY2VndW5rbm93bmtkZXNjcmlwdGlvbnhmQ2xhdWRlIHByb3ZpZGVkIHRoaXMgZmlsZSBhdCB0aGUgcmVxdWVzdCBvZiBhIHVzZXIgYW5kIG1heSBoYXZlIGNyZWF0ZWQgb3IgbW9kaWZpZWQgdGhlIGZpbGUgY29udGVudHMubXNvZnR3YXJlQWdlbnShZG5hbWVmQ2xhdWRlcmFsbEFjdGlvbnNJbmNsdWRlZPUAAADIanVtYgAAAEBqdW1kY2JvcgARABCAAACqADibcRNjMnBhLmhhc2guZGF0YQAAAAAYYzJzaEZJXMv4OMg/YbyKM6L2NmUAAACAY2JvcqVjYWxnZnNoYTI1NmNwYWRNAAAAAAAAAAAAAAAAAGRoYXNoWCCqhDxj8tMlgc1dkUQ/8lkwnCNelUAI1f+5kiSA70cEEGRuYW1lbmp1bWJmIG1hbmlmZXN0amV4Y2x1c2lvbnOBomVzdGFydBjWZmxlbmd0aBkeBAAAAj5qdW1iAAAAJ2p1bWRjMmNsABEAEIAAAKoAOJtxA2MycGEuY2xhaW0udjIAAAACD2Nib3KlY2FsZ2ZzaGEyNTZpc2lnbmF0dXJleE1zZWxmI2p1bWJmPS9jMnBhL3VybjpjMnBhOmI1ODE2MDNiLWNkYmQtNGY0Ny1hMGU3LWU2MDBhMjk3NjkzZS9jMnBhLnNpZ25hdHVyZWppbnN0YW5jZUlEeCx4bXA6aWlkOjFlZjU2OTVlLTQxOGQtNDRlMi04NzNhLWFhMDM4YjgyODFlNHJjcmVhdGVkX2Fzc2VydGlvbnODomN1cmx4LXNlbGYjanVtYmY9YzJwYS5hc3NlcnRpb25zL2MycGEuaW5ncmVkaWVudC52M2RoYXNoWCCpBmd0euHRzS/QiiAWMV6kf3jJwrlbIiFssWHin/OiuKJjdXJseCpzZWxmI2p1bWJmPWMycGEuYXNzZXJ0aW9ucy9jMnBhLmFjdGlvbnMudjJkaGFzaFggeXv/hTS/c4jNQElXeu/WlgOBoUKsGuL6ETcl6YMCW5miY3VybHgpc2VsZiNqdW1iZj1jMnBhLmFzc2VydGlvbnMvYzJwYS5oYXNoLmRhdGFkaGFzaFgggBkWbznU3sNwMGdEsKgNG8FLkbon2PjFEENdi9sF1nh0Y2xhaW1fZ2VuZXJhdG9yX2luZm+jZG5hbWVvQW50aHJvcGljIEZpbGVzZ3ZlcnNpb25lMS4wLjBrc3BlY1ZlcnNpb25lMi40LjAAABA4anVtYgAAAChqdW1kYzJjcwARABCAAACqADibcQNjMnBhLnNpZ25hdHVyZQAAABAIY2JvctKEWQISogEmGCFZAgowggIGMIIBjaADAgECAhRA5aAK7sI50L64g/oGQgU9Z1UTADAKBggqhkjOPQQDAzBJMRcwFQYDVQQKEw5BbnRocm9waWMsIFBCQzEuMCwGA1UEAxMlQW50aHJvcGljIENvbnRlbnQgQ3JlZGVudGlhbHMgUm9vdCBDQTAeFw0yNjA4MDcxODQzNTZaFw0yODA4MDYxOTQzNTZaMEQxFzAVBgNVBAoTDkFudGhyb3BpYywgUEJDMSkwJwYDVQQDEyBBbnRocm9waWMgQ2xhdWRlIENvbnRlbnQgU2lnbmluZzBZMBMGByqGSM49AgEGCCqGSM49AwEHA0IABJh6CmvLUBgFFNU0vUKlOVtE6djd17L5SuwX0LemFisBM3dkd/3cyjxFA3Qo5S46fX0/ihY0VZ7mfb9KF703t5OjWDBWMA4GA1UdDwEB/wQEAwIHgDAVBgNVHSUEDjAMBgorBgEEAYPoXgIBMAwGA1UdEwEB/wQCMAAwHwYDVR0jBBgwFoAUzlHiBIFOZFsj+OPEz5o+nMHXXMIwCgYIKoZIzj0EAwMDZwAwZAIwMXMdFJ4BetLLVY7ORuE9noqbbAZOZn/aArXyTwFAZfKrPzxF2vPoJNf1+UCdg1XGAjBwX1zd9WGqYkqmL5SFqw1QySjr1zJfpJM9+1rdDwSPLMOPOjKuiXjoU/pUUeG9RwmhY3BhZFkNngAAAAAAAAAAAAAAAAAAAAAAAAAAAAAAAAAAAAAAAAAAAAAAAAAAAAAAAAAAAAAAAAAAAAAAAAAAAAAAAAAAAAAAAAAAAAAAAAAAAAAAAAAAAAAAAAAAAAAAAAAAAAAAAAAAAAAAAAAAAAAAAAAAAAAAAAAAAAAAAAAAAAAAAAAAAAAAAAAAAAAAAAAAAAAAAAAAAAAAAAAAAAAAAAAAAAAAAAAAAAAAAAAAAAAAAAAAAAAAAAAAAAAAAAAAAAAAAAAAAAAAAAAAAAAAAAAAAAAAAAAAAAAAAAAAAAAAAAAAAAAAAAAAAAAAAAAAAAAAAAAAAAAAAAAAAAAAAAAAAAAAAAAAAAAAAAAAAAAAAAAAAAAAAAAAAAAAAAAAAAAAAAAAAAAAAAAAAAAAAAAAAAAAAAAAAAAAAAAAAAAAAAAAAAAAAAAAAAAAAAAAAAAAAAAAAAAAAAAAAAAAAAAAAAAAAAAAAAAAAAAAAAAAAAAAAAAAAAAAAAAAAAAAAAAAAAAAAAAAAAAAAAAAAAAAAAAAAAAAAAAAAAAAAAAAAAAAAAAAAAAAAAAAAAAAAAAAAAAAAAAAAAAAAAAAAAAAAAAAAAAAAAAAAAAAAAAAAAAAAAAAAAAAAAAAAAAAAAAAAAAAAAAAAAAAAAAAAAAAAAAAAAAAAAAAAAAAAAAAAAAAAAAAAAAAAAAAAAAAAAAAAAAAAAAAAAAAAAAAAAAAAAAAAAAAAAAAAAAAAAAAAAAAAAAAAAAAAAAAAAAAAAAAAAAAAAAAAAAAAAAAAAAAAAAAAAAAAAAAAAAAAAAAAAAAAAAAAAAAAAAAAAAAAAAAAAAAAAAAAAAAAAAAAAAAAAAAAAAAAAAAAAAAAAAAAAAAAAAAAAAAAAAAAAAAAAAAAAAAAAAAAAAAAAAAAAAAAAAAAAAAAAAAAAAAAAAAAAAAAAAAAAAAAAAAAAAAAAAAAAAAAAAAAAAAAAAAAAAAAAAAAAAAAAAAAAAAAAAAAAAAAAAAAAAAAAAAAAAAAAAAAAAAAAAAAAAAAAAAAAAAAAAAAAAAAAAAAAAAAAAAAAAAAAAAAAAAAAAAAAAAAAAAAAAAAAAAAAAAAAAAAAAAAAAAAAAAAAAAAAAAAAAAAAAAAAAAAAAAAAAAAAAAAAAAAAAAAAAAAAAAAAAAAAAAAAAAAAAAAAAAAAAAAAAAAAAAAAAAAAAAAAAAAAAAAAAAAAAAAAAAAAAAAAAAAAAAAAAAAAAAAAAAAAAAAAAAAAAAAAAAAAAAAAAAAAAAAAAAAAAAAAAAAAAAAAAAAAAAAAAAAAAAAAAAAAAAAAAAAAAAAAAAAAAAAAAAAAAAAAAAAAAAAAAAAAAAAAAAAAAAAAAAAAAAAAAAAAAAAAAAAAAAAAAAAAAAAAAAAAAAAAAAAAAAAAAAAAAAAAAAAAAAAAAAAAAAAAAAAAAAAAAAAAAAAAAAAAAAAAAAAAAAAAAAAAAAAAAAAAAAAAAAAAAAAAAAAAAAAAAAAAAAAAAAAAAAAAAAAAAAAAAAAAAAAAAAAAAAAAAAAAAAAAAAAAAAAAAAAAAAAAAAAAAAAAAAAAAAAAAAAAAAAAAAAAAAAAAAAAAAAAAAAAAAAAAAAAAAAAAAAAAAAAAAAAAAAAAAAAAAAAAAAAAAAAAAAAAAAAAAAAAAAAAAAAAAAAAAAAAAAAAAAAAAAAAAAAAAAAAAAAAAAAAAAAAAAAAAAAAAAAAAAAAAAAAAAAAAAAAAAAAAAAAAAAAAAAAAAAAAAAAAAAAAAAAAAAAAAAAAAAAAAAAAAAAAAAAAAAAAAAAAAAAAAAAAAAAAAAAAAAAAAAAAAAAAAAAAAAAAAAAAAAAAAAAAAAAAAAAAAAAAAAAAAAAAAAAAAAAAAAAAAAAAAAAAAAAAAAAAAAAAAAAAAAAAAAAAAAAAAAAAAAAAAAAAAAAAAAAAAAAAAAAAAAAAAAAAAAAAAAAAAAAAAAAAAAAAAAAAAAAAAAAAAAAAAAAAAAAAAAAAAAAAAAAAAAAAAAAAAAAAAAAAAAAAAAAAAAAAAAAAAAAAAAAAAAAAAAAAAAAAAAAAAAAAAAAAAAAAAAAAAAAAAAAAAAAAAAAAAAAAAAAAAAAAAAAAAAAAAAAAAAAAAAAAAAAAAAAAAAAAAAAAAAAAAAAAAAAAAAAAAAAAAAAAAAAAAAAAAAAAAAAAAAAAAAAAAAAAAAAAAAAAAAAAAAAAAAAAAAAAAAAAAAAAAAAAAAAAAAAAAAAAAAAAAAAAAAAAAAAAAAAAAAAAAAAAAAAAAAAAAAAAAAAAAAAAAAAAAAAAAAAAAAAAAAAAAAAAAAAAAAAAAAAAAAAAAAAAAAAAAAAAAAAAAAAAAAAAAAAAAAAAAAAAAAAAAAAAAAAAAAAAAAAAAAAAAAAAAAAAAAAAAAAAAAAAAAAAAAAAAAAAAAAAAAAAAAAAAAAAAAAAAAAAAAAAAAAAAAAAAAAAAAAAAAAAAAAAAAAAAAAAAAAAAAAAAAAAAAAAAAAAAAAAAAAAAAAAAAAAAAAAAAAAAAAAAAAAAAAAAAAAAAAAAAAAAAAAAAAAAAAAAAAAAAAAAAAAAAAAAAAAAAAAAAAAAAAAAAAAAAAAAAAAAAAAAAAAAAAAAAAAAAAAAAAAAAAAAAAAAAAAAAAAAAAAAAAAAAAAAAAAAAAAAAAAAAAAAAAAAAAAAAAAAAAAAAAAAAAAAAAAAAAAAAAAAAAAAAAAAAAAAAAAAAAAAAAAAAAAAAAAAAAAAAAAAAAAAAAAAAAAAAAAAAAAAAAAAAAAAAAAAAAAAAAAAAAAAAAAAAAAAAAAAAAAAAAAAAAAAAAAAAAAAAAAAAAAAAAAAAAAAAAAAAAAAAAAAAAAAAAAAAAAAAAAAAAAAAAAAAAAAAAAAAAAAAAAAAAAAAAAAAAAAAAAAAAAAAAAAAAAAAAAAAAAAAAAAAAAAAAAAAAAAAAAAAAAAAAAAAAAAAAAAAAAAAAAAAAAAAAAAAAAAAAAAAAAAAAAAAAAAAAAAAAAAAAAAAAAAAAAAAAAAAAAAAAAAAAAAAAAAAAAAAAAAAAAAAAAAAAAAAAAAAAAAAAAAAAAAAAAAAAAAAAAAAAAAAAAAAAAAAAAAAAAAAAAAAAAAAAAAAAAAAAAAAAAAAAAAAAAAAAAAAAAAAAAAAAAAAAAAAAAAAAAAAAAAAAAAAAAAAAAAAAAAAAAAAAAAAAAAAAAAAAAAAAAAAAAAAAAAAAAAAAAAAAAAAAAAAAAAAAAAAAAAAAAAAAAAAAAAAAAAAAAAAAAAAAAAAAAAAAAAAAAAAAAAAAAAAAAAAAAAAAAAAAAAAAAAAAAAAAAAAAAAAAAAAAAAAAAAAAAAAAAAAAAAAAAAAAAAAAAAAAAAAAAAAAAAAAAAAAAAAAAAAAAAAAAAAAAAAAAAAAAAAAAAAAAAAAAAAAAAAAAAAAAAAAAAAAAAAAAAAAAAAAAAAAAAAAAAAAAAAAAAAAAAAAAAAAAAAAAAAAAAAAAAAAAAAAAAAAAAAAAAAAAAAAAAAAAAAAAAAAAAAAAAAAAAAAAAAAAAAAAAAAAAAAAAAAAAAAAAAAAAAAAAAAAAAAAAAAAAAAAAAAAAAAAAAAAAAAAAAAAAAAAAAAAAAAAAAAAAAAAAAAAAAAAAAAAAAAAAAAAAAAAAAAAAAAAAAAAAAAAAAAAAAAAAAAAAAAAAAAAAAAAAAAAAAAAAAAAAAAAAAAAAAAAAAAAAAAAAAAAAAAAAAAAAAAAAAAAAAAAAAAAAAAAAAAAAAAAAAAAAAAAAAAAAAAAAAAAAAAAAAAAAAAAAAAAAAAAAAAAAAAAAAAAAAAAAAAAAAAAAAAAAAAAAAAAAAAAAAAAAAAAAAAAAAAAAAAAAAAAAAAAAAAAAAAAAAAAAAAAAAAAAAAAAAAAAAAAAAAAAAAAAAAAAAAAAAAAAAAAAAAAAAAAAAAAAAAAAAAAAAAAAAAAAAAAAAAAAAAAAAAAAAAAAAAAAAAAAAAAAAAAAAAAAAAAAAAAAAAAAAAAAAAAAAAAAAAAAAAAAAAAAAAAAAAAAAAAAAAAAAAAAAAAAAAAAAAAAAAAAAAAAAAAAAAAAAAAAAAAAAAAAAAAAAAAAAAAAAAAAAAAAAAAAAAAAAAAAAAAAAAAAAAAAAAAAAAAAAAAAAAAAAAAAAAAAAAAAAAAAAAAAAAAAAAAAAAAAAAAAAAAAAAAAAAAAAAAAAAAAAAAAAAAAAAAAAAAAAAAAAAAAAAAAAAAAAAAAAAAAAAAAAAAAAAAAAAAAAAAAAAAAAAAAAAAAAAAAAAAAAAAAAAAAAAAAAAAAAAAAAAAAAAAAAAAAAAAAAAAAAAAAAAAAAAAAAAAAAAAAAAAAAAAAAAAAAAAAAAAAAAAAAAAAAAAAAAAAAAAAAAAAAAAAAAAAAAAAAAAAAAAAAAAAAAAAAAAAAAAAAAAAAAAAAAAAAAAAAAAAAAAAAAAAAAAAAAAAAAAAAAAAAAAAAAAAAAAAAAAAAAAAAAAAAAAAAAAAAAAAAAAAAAAAAAAAAAAAAAAAAAAAAAAAAAAAAAAAAAAAAAAAAAAAAAAAAAAAAAAAAAAAAAAAAAAAAAAAAAAAAAAAAAAAAAAAAAAAAAAAAAAAAAAAAAAAAAAAAAAAAAAAAAAAPZYQORebQhrJDIcSjs+HwEqC34ScycOf8KaOjvY8mj2jDxDcKlnJZFjcpuE5QhCeZCAVG0KkD5EAJY/ln59SkVP8pg=</c2pa:manifest></metadata><ellipse cx="150" cy="268" rx="80" ry="9" fill="#000" opacity=".13"/><path d="M80 66q0-10 10-10h120q10 0 10 10v186q0 12-12 12H92q-12 0-12-12z" fill="#3E8E7E"/><path d="M80 66q0-10 10-10h120q10 0 10 10v16H80z" fill="#2d665b"/><path d="M88 59v20M96 59v20M104 59v20M112 59v20M120 59v20M128 59v20M136 59v20M144 59v20M152 59v20M160 59v20M168 59v20M176 59v20M184 59v20M192 59v20M200 59v20M208 59v20" stroke="#3E8E7E" stroke-opacity=".55" stroke-width="2"/><path d="M92 92v158" stroke="#fff" stroke-opacity=".18" stroke-width="8" stroke-linecap="round"/><rect x="95" y="94" width="110" height="90" rx="10" fill="#fff" fill-opacity=".96"/><rect x="187" y="102" width="11" height="11" fill="none" stroke="#0a8a3a" stroke-width="1.6"/><circle cx="192.5" cy="107.5" r="3" fill="#0a8a3a"/><text x="150" y="122" text-anchor="middle" font-size="9.5" font-weight="600" fill="#3E8E7E">Terra Pantry</text><text x="150" y="145" text-anchor="middle" font-size="18" font-weight="800" fill="#17261E">Thick</text><text x="150" y="164" text-anchor="middle" font-size="12" font-weight="600" fill="#5E6F65">Poha</text><clipPath id="k7505"><rect x="95" y="194" width="110" height="60" rx="8"/></clipPath><g clip-path="url(#k7505)"><rect x="95" y="194" width="110" height="60" fill="#d5cfb6"/><circle cx="143.4" cy="206.7" r="6.5" fill="#F2EBCF" /><circle cx="150.0" cy="219.2" r="6.3" fill="#F2EBCF" /><circle cx="98.4" cy="208.2" r="4.5" fill="#F2EBCF" /><circle cx="144.3" cy="198.7" r="5.1" fill="#F2EBCF" /><circle cx="113.5" cy="215.8" r="6.4" fill="#F2EBCF" /><circle cx="162.0" cy="224.4" r="3.8" fill="#F2EBCF" /><circle cx="115.4" cy="249.5" r="4.4" fill="#F2EBCF" /><circle cx="129.7" cy="196.1" r="6.4" fill="#F2EBCF" /><circle cx="140.7" cy="209.3" r="5.3" fill="#F2EBCF" /><circle cx="194.3" cy="194.0" r="5.1" fill="#F2EBCF" /><circle cx="116.1" cy="235.2" r="4.1" fill="#F2EBCF" /><circle cx="172.2" cy="238.0" r="3.7" fill="#F2EBCF" /><circle cx="188.3" cy="227.3" r="5.0" fill="#F2EBCF" /><circle cx="100.3" cy="228.1" r="6.3" fill="#F2EBCF" /><circle cx="173.9" cy="205.5" r="5.8" fill="#F2EBCF" /><circle cx="125.1" cy="244.3" r="4.8" fill="#F2EBCF" /><circle cx="109.6" cy="249.7" r="4.6" fill="#F2EBCF" /><circle cx="173.3" cy="246.7" r="6.4" fill="#F2EBCF" /><circle cx="142.0" cy="200.1" r="5.4" fill="#F2EBCF" /><circle cx="171.6" cy="195.1" r="5.9" fill="#F2EBCF" /><circle cx="197.9" cy="196.6" r="6.1" fill="#F2EBCF" /><circle cx="156.7" cy="229.6" r="4.3" fill="#F2EBCF" /><circle cx="203.9" cy="199.2" r="4.8" fill="#F2EBCF" /><circle cx="165.2" cy="250.3" r="5.8" fill="#F2EBCF" /><circle cx="196.6" cy="227.9" r="5.5" fill="#F2EBCF" /><circle cx="123.8" cy="217.1" r="5.2" fill="#F2EBCF" /><circle cx="102.7" cy="242.7" r="6.1" fill="#F2EBCF" /><circle cx="179.2" cy="209.9" r="3.6" fill="#F2EBCF" /><circle cx="179.0" cy="203.7" r="4.8" fill="#F2EBCF" /><circle cx="147.9" cy="248.9" r="4.9" fill="#F2EBCF" /><circle cx="132.0" cy="250.7" r="5.4" fill="#F2EBCF" /><circle cx="176.8" cy="234.0" r="4.3" fill="#F2EBCF" /><circle cx="108.4" cy="223.9" r="5.9" fill="#F2EBCF" /><circle cx="192.5" cy="245.3" r="5.6" fill="#F2EBCF" /><circle cx="144.9" cy="203.2" r="4.5" fill="#F2EBCF" /><circle cx="121.5" cy="242.6" r="3.9" fill="#F2EBCF" /><circle cx="168.2" cy="208.5" r="5.0" fill="#F2EBCF" /><circle cx="110.7" cy="246.0" r="6.1" fill="#F2EBCF" /><circle cx="104.9" cy="200.0" r="5.5" fill="#F2EBCF" /><circle cx="196.6" cy="215.6" r="4.3" fill="#F2EBCF" /><circle cx="101.7" cy="197.6" r="3.9" fill="#F2EBCF" /><circle cx="195.9" cy="231.2" r="5.5" fill="#F2EBCF" /><circle cx="195.2" cy="221.3" r="4.4" fill="#F2EBCF" /><circle cx="145.4" cy="253.0" r="4.7" fill="#F2EBCF" /><circle cx="202.2" cy="231.2" r="4.8" fill="#F2EBCF" /><circle cx="191.6" cy="240.9" r="5.8" fill="#F2EBCF" /><circle cx="159.3" cy="247.1" r="6.1" fill="#F2EBCF" /><circle cx="151.2" cy="214.9" r="3.9" fill="#F2EBCF" /><circle cx="103.1" cy="229.2" r="6.5" fill="#F2EBCF" /><circle cx="170.9" cy="195.0" r="6.0" fill="#F2EBCF" /><circle cx="180.4" cy="197.3" r="3.8" fill="#F2EBCF" /><circle cx="177.4" cy="201.2" r="4.1" fill="#F2EBCF" /><circle cx="97.7" cy="231.6" r="5.1" fill="#F2EBCF" /><circle cx="97.3" cy="253.5" r="5.1" fill="#F2EBCF" /><circle cx="111.8" cy="232.0" r="5.4" fill="#F2EBCF" /><circle cx="187.2" cy="251.9" r="4.1" fill="#F2EBCF" /><circle cx="149.4" cy="218.5" r="5.6" fill="#F2EBCF" /><circle cx="154.0" cy="216.5" r="5.1" fill="#F2EBCF" /><circle cx="137.0" cy="211.1" r="3.8" fill="#F2EBCF" /><circle cx="144.2" cy="227.2" r="6.0" fill="#F2EBCF" /><circle cx="111.4" cy="229.8" r="4.0" fill="#F2EBCF" /><circle cx="194.4" cy="243.9" r="4.9" fill="#F2EBCF" /><circle cx="109.2" cy="234.6" r="4.1" fill="#F2EBCF" /><circle cx="121.5" cy="226.8" r="5.8" fill="#F2EBCF" /><circle cx="167.1" cy="245.5" r="5.3" fill="#F2EBCF" /><circle cx="181.9" cy="195.8" r="3.7" fill="#F2EBCF" /><circle cx="101.8" cy="222.6" r="5.4" fill="#F2EBCF" /><circle cx="192.5" cy="230.9" r="5.5" fill="#F2EBCF" /><circle cx="169.8" cy="245.7" r="5.4" fill="#F2EBCF" /><circle cx="189.8" cy="232.1" r="6.3" fill="#F2EBCF" /><circle cx="188.0" cy="215.0" r="6.5" fill="#F2EBCF" /><circle cx="100.5" cy="219.4" r="4.1" fill="#F2EBCF" /><circle cx="193.0" cy="210.4" r="6.5" fill="#F2EBCF" /><circle cx="181.3" cy="212.9" r="5.9" fill="#F2EBCF" /><circle cx="111.3" cy="251.9" r="6.5" fill="#F2EBCF" /><circle cx="138.9" cy="232.4" r="3.6" fill="#F2EBCF" /></g><rect x="95" y="194" width="110" height="60" rx="8" fill="none" stroke="#fff" stroke-opacity=".7" stroke-width="2"/></svg>
