<svg xmlns="http://www.w3.org/2000/svg" viewBox="0 0 300 300" width="600" height="600" font-family="'Bricolage Grotesque','Segoe UI',Arial,sans-serif" xmlns:c2pa="http://c2pa.org/manifest"><metadata><c2pa:manifest>AAAWgmp1bWIAAAAeanVtZGMycGEAEQAQgAAAqgA4m3EDYzJwYQAAABZcanVtYgAAAEdqdW1kYzJtYQARABCAAACqADibcQN1cm46YzJwYToyNTU1MTY5Yi1kYjhhLTQ3YmEtOGNlYS1lNzBiMWFiMTg1MTkAAAADl2p1bWIAAAApanVtZGMyYXMAEQAQgAAAqgA4m3EDYzJwYS5hc3NlcnRpb25zAAAAALxqdW1iAAAARGp1bWRjYm9yABEAEIAAAKoAOJtxE2MycGEuaW5ncmVkaWVudC52MwAAAAAYYzJzaH4BVN5XtN1YGsYt3nnNZCEAAABwY2JvcqNpZGM6Zm9ybWF0bWltYWdlL3N2Zyt4bWxqaW5zdGFuY2VJRHgseG1wOmlpZDphNzAyNzY1Zi1jZWU5LTRmMjctYjI5OC0yNTJhNGMyMzdkMWRscmVsYXRpb25zaGlwaHBhcmVudE9mAAAB4mp1bWIAAABBanVtZGNib3IAEQAQgAAAqgA4m3ETYzJwYS5hY3Rpb25zLnYyAAAAABhjMnNoOHTOOLQi8VKpAl5TVRGeNQAAAZljYm9yomdhY3Rpb25zgqJmYWN0aW9ua2MycGEub3BlbmVkanBhcmFtZXRlcnOha2luZ3JlZGllbnRzgaJjdXJseC1zZWxmI2p1bWJmPWMycGEuYXNzZXJ0aW9ucy9jMnBhLmluZ3JlZGllbnQudjNkaGFzaFggNEMgJjyQWdT379O8iAgovm3JqXYJzf9VJHiah76rg0SkZmFjdGlvbngdY29tLmFudGhyb3BpYy5jbGF1ZGUucHJvdmlkZWRqcGFyYW1ldGVyc6F4H2NvbS5hbnRocm9waWMub3JpZ2luLWNvbmZpZGVuY2VndW5rbm93bmtkZXNjcmlwdGlvbnhmQ2xhdWRlIHByb3ZpZGVkIHRoaXMgZmlsZSBhdCB0aGUgcmVxdWVzdCBvZiBhIHVzZXIgYW5kIG1heSBoYXZlIGNyZWF0ZWQgb3IgbW9kaWZpZWQgdGhlIGZpbGUgY29udGVudHMubXNvZnR3YXJlQWdlbnShZG5hbWVmQ2xhdWRlcmFsbEFjdGlvbnNJbmNsdWRlZPUAAADIanVtYgAAAEBqdW1kY2JvcgARABCAAACqADibcRNjMnBhLmhhc2guZGF0YQAAAAAYYzJzaIeCNbAHuABzkXVvCdbnX2kAAACAY2JvcqVjYWxnZnNoYTI1NmNwYWRNAAAAAAAAAAAAAAAAAGRoYXNoWCD7ZjRqmqvVbabtNOB8e7MdCrZ8paHWrbvj9Pi9d2nLKmRuYW1lbmp1bWJmIG1hbmlmZXN0amV4Y2x1c2lvbnOBomVzdGFydBjWZmxlbmd0aBkeBAAAAj5qdW1iAAAAJ2p1bWRjMmNsABEAEIAAAKoAOJtxA2MycGEuY2xhaW0udjIAAAACD2Nib3KlY2FsZ2ZzaGEyNTZpc2lnbmF0dXJleE1zZWxmI2p1bWJmPS9jMnBhL3VybjpjMnBhOjI1NTUxNjliLWRiOGEtNDdiYS04Y2VhLWU3MGIxYWIxODUxOS9jMnBhLnNpZ25hdHVyZWppbnN0YW5jZUlEeCx4bXA6aWlkOjg0ZWFmNzcyLTAxM2MtNGY2Ni04ZmY0LWMzOGYxN2ViMzkwZHJjcmVhdGVkX2Fzc2VydGlvbnODomN1cmx4LXNlbGYjanVtYmY9YzJwYS5hc3NlcnRpb25zL2MycGEuaW5ncmVkaWVudC52M2RoYXNoWCA0QyAmPJBZ1Pfv07yICCi+bcmpdgnN/1UkeJqHvquDRKJjdXJseCpzZWxmI2p1bWJmPWMycGEuYXNzZXJ0aW9ucy9jMnBhLmFjdGlvbnMudjJkaGFzaFggmlJaAGLB9nWxowPMlkFfOjXNVNHw2HUhCNzz4zfqwUyiY3VybHgpc2VsZiNqdW1iZj1jMnBhLmFzc2VydGlvbnMvYzJwYS5oYXNoLmRhdGFkaGFzaFggrwK11CMR07MW6R155TIcPyCx173JpZxrhHeJli30uKd0Y2xhaW1fZ2VuZXJhdG9yX2luZm+jZG5hbWVvQW50aHJvcGljIEZpbGVzZ3ZlcnNpb25lMS4wLjBrc3BlY1ZlcnNpb25lMi40LjAAABA4anVtYgAAAChqdW1kYzJjcwARABCAAACqADibcQNjMnBhLnNpZ25hdHVyZQAAABAIY2JvctKEWQISogEmGCFZAgowggIGMIIBjaADAgECAhRA5aAK7sI50L64g/oGQgU9Z1UTADAKBggqhkjOPQQDAzBJMRcwFQYDVQQKEw5BbnRocm9waWMsIFBCQzEuMCwGA1UEAxMlQW50aHJvcGljIENvbnRlbnQgQ3JlZGVudGlhbHMgUm9vdCBDQTAeFw0yNjA4MDcxODQzNTZaFw0yODA4MDYxOTQzNTZaMEQxFzAVBgNVBAoTDkFudGhyb3BpYywgUEJDMSkwJwYDVQQDEyBBbnRocm9waWMgQ2xhdWRlIENvbnRlbnQgU2lnbmluZzBZMBMGByqGSM49AgEGCCqGSM49AwEHA0IABJh6CmvLUBgFFNU0vUKlOVtE6djd17L5SuwX0LemFisBM3dkd/3cyjxFA3Qo5S46fX0/ihY0VZ7mfb9KF703t5OjWDBWMA4GA1UdDwEB/wQEAwIHgDAVBgNVHSUEDjAMBgorBgEEAYPoXgIBMAwGA1UdEwEB/wQCMAAwHwYDVR0jBBgwFoAUzlHiBIFOZFsj+OPEz5o+nMHXXMIwCgYIKoZIzj0EAwMDZwAwZAIwMXMdFJ4BetLLVY7ORuE9noqbbAZOZn/aArXyTwFAZfKrPzxF2vPoJNf1+UCdg1XGAjBwX1zd9WGqYkqmL5SFqw1QySjr1zJfpJM9+1rdDwSPLMOPOjKuiXjoU/pUUeG9RwmhY3BhZFkNngAAAAAAAAAAAAAAAAAAAAAAAAAAAAAAAAAAAAAAAAAAAAAAAAAAAAAAAAAAAAAAAAAAAAAAAAAAAAAAAAAAAAAAAAAAAAAAAAAAAAAAAAAAAAAAAAAAAAAAAAAAAAAAAAAAAAAAAAAAAAAAAAAAAAAAAAAAAAAAAAAAAAAAAAAAAAAAAAAAAAAAAAAAAAAAAAAAAAAAAAAAAAAAAAAAAAAAAAAAAAAAAAAAAAAAAAAAAAAAAAAAAAAAAAAAAAAAAAAAAAAAAAAAAAAAAAAAAAAAAAAAAAAAAAAAAAAAAAAAAAAAAAAAAAAAAAAAAAAAAAAAAAAAAAAAAAAAAAAAAAAAAAAAAAAAAAAAAAAAAAAAAAAAAAAAAAAAAAAAAAAAAAAAAAAAAAAAAAAAAAAAAAAAAAAAAAAAAAAAAAAAAAAAAAAAAAAAAAAAAAAAAAAAAAAAAAAAAAAAAAAAAAAAAAAAAAAAAAAAAAAAAAAAAAAAAAAAAAAAAAAAAAAAAAAAAAAAAAAAAAAAAAAAAAAAAAAAAAAAAAAAAAAAAAAAAAAAAAAAAAAAAAAAAAAAAAAAAAAAAAAAAAAAAAAAAAAAAAAAAAAAAAAAAAAAAAAAAAAAAAAAAAAAAAAAAAAAAAAAAAAAAAAAAAAAAAAAAAAAAAAAAAAAAAAAAAAAAAAAAAAAAAAAAAAAAAAAAAAAAAAAAAAAAAAAAAAAAAAAAAAAAAAAAAAAAAAAAAAAAAAAAAAAAAAAAAAAAAAAAAAAAAAAAAAAAAAAAAAAAAAAAAAAAAAAAAAAAAAAAAAAAAAAAAAAAAAAAAAAAAAAAAAAAAAAAAAAAAAAAAAAAAAAAAAAAAAAAAAAAAAAAAAAAAAAAAAAAAAAAAAAAAAAAAAAAAAAAAAAAAAAAAAAAAAAAAAAAAAAAAAAAAAAAAAAAAAAAAAAAAAAAAAAAAAAAAAAAAAAAAAAAAAAAAAAAAAAAAAAAAAAAAAAAAAAAAAAAAAAAAAAAAAAAAAAAAAAAAAAAAAAAAAAAAAAAAAAAAAAAAAAAAAAAAAAAAAAAAAAAAAAAAAAAAAAAAAAAAAAAAAAAAAAAAAAAAAAAAAAAAAAAAAAAAAAAAAAAAAAAAAAAAAAAAAAAAAAAAAAAAAAAAAAAAAAAAAAAAAAAAAAAAAAAAAAAAAAAAAAAAAAAAAAAAAAAAAAAAAAAAAAAAAAAAAAAAAAAAAAAAAAAAAAAAAAAAAAAAAAAAAAAAAAAAAAAAAAAAAAAAAAAAAAAAAAAAAAAAAAAAAAAAAAAAAAAAAAAAAAAAAAAAAAAAAAAAAAAAAAAAAAAAAAAAAAAAAAAAAAAAAAAAAAAAAAAAAAAAAAAAAAAAAAAAAAAAAAAAAAAAAAAAAAAAAAAAAAAAAAAAAAAAAAAAAAAAAAAAAAAAAAAAAAAAAAAAAAAAAAAAAAAAAAAAAAAAAAAAAAAAAAAAAAAAAAAAAAAAAAAAAAAAAAAAAAAAAAAAAAAAAAAAAAAAAAAAAAAAAAAAAAAAAAAAAAAAAAAAAAAAAAAAAAAAAAAAAAAAAAAAAAAAAAAAAAAAAAAAAAAAAAAAAAAAAAAAAAAAAAAAAAAAAAAAAAAAAAAAAAAAAAAAAAAAAAAAAAAAAAAAAAAAAAAAAAAAAAAAAAAAAAAAAAAAAAAAAAAAAAAAAAAAAAAAAAAAAAAAAAAAAAAAAAAAAAAAAAAAAAAAAAAAAAAAAAAAAAAAAAAAAAAAAAAAAAAAAAAAAAAAAAAAAAAAAAAAAAAAAAAAAAAAAAAAAAAAAAAAAAAAAAAAAAAAAAAAAAAAAAAAAAAAAAAAAAAAAAAAAAAAAAAAAAAAAAAAAAAAAAAAAAAAAAAAAAAAAAAAAAAAAAAAAAAAAAAAAAAAAAAAAAAAAAAAAAAAAAAAAAAAAAAAAAAAAAAAAAAAAAAAAAAAAAAAAAAAAAAAAAAAAAAAAAAAAAAAAAAAAAAAAAAAAAAAAAAAAAAAAAAAAAAAAAAAAAAAAAAAAAAAAAAAAAAAAAAAAAAAAAAAAAAAAAAAAAAAAAAAAAAAAAAAAAAAAAAAAAAAAAAAAAAAAAAAAAAAAAAAAAAAAAAAAAAAAAAAAAAAAAAAAAAAAAAAAAAAAAAAAAAAAAAAAAAAAAAAAAAAAAAAAAAAAAAAAAAAAAAAAAAAAAAAAAAAAAAAAAAAAAAAAAAAAAAAAAAAAAAAAAAAAAAAAAAAAAAAAAAAAAAAAAAAAAAAAAAAAAAAAAAAAAAAAAAAAAAAAAAAAAAAAAAAAAAAAAAAAAAAAAAAAAAAAAAAAAAAAAAAAAAAAAAAAAAAAAAAAAAAAAAAAAAAAAAAAAAAAAAAAAAAAAAAAAAAAAAAAAAAAAAAAAAAAAAAAAAAAAAAAAAAAAAAAAAAAAAAAAAAAAAAAAAAAAAAAAAAAAAAAAAAAAAAAAAAAAAAAAAAAAAAAAAAAAAAAAAAAAAAAAAAAAAAAAAAAAAAAAAAAAAAAAAAAAAAAAAAAAAAAAAAAAAAAAAAAAAAAAAAAAAAAAAAAAAAAAAAAAAAAAAAAAAAAAAAAAAAAAAAAAAAAAAAAAAAAAAAAAAAAAAAAAAAAAAAAAAAAAAAAAAAAAAAAAAAAAAAAAAAAAAAAAAAAAAAAAAAAAAAAAAAAAAAAAAAAAAAAAAAAAAAAAAAAAAAAAAAAAAAAAAAAAAAAAAAAAAAAAAAAAAAAAAAAAAAAAAAAAAAAAAAAAAAAAAAAAAAAAAAAAAAAAAAAAAAAAAAAAAAAAAAAAAAAAAAAAAAAAAAAAAAAAAAAAAAAAAAAAAAAAAAAAAAAAAAAAAAAAAAAAAAAAAAAAAAAAAAAAAAAAAAAAAAAAAAAAAAAAAAAAAAAAAAAAAAAAAAAAAAAAAAAAAAAAAAAAAAAAAAAAAAAAAAAAAAAAAAAAAAAAAAAAAAAAAAAAAAAAAAAAAAAAAAAAAAAAAAAAAAAAAAAAAAAAAAAAAAAAAAAAAAAAAAAAAAAAAAAAAAAAAAAAAAAAAAAAAAAAAAAAAAAAAAAAAAAAAAAAAAAAAAAAAAAAAAAAAAAAAAAAAAAAAAAAAAAAAAAAAAAAAAAAAAAAAAAAAAAAAAAAAAAAAAAAAAAAAAAAAAAAAAAAAAAAAAAAAAAAAAAAAAAAAAAAAAAAAAAAAAAAAAAAAAAAAAAAAAAAAAAAAAAAAAAAAAAAAAAAAAAAAAAAAAAAAAAAAAAAAAAAAAAAAAAAAAAAAAAAAAAAAAAAAAAAAAAAAAAAAAAAAAAAAAAAAAAAAAAAAAAAAAAAAAAAAAAAAAAAAAAAAAAAAAAAAAAAAAAAAAAAAAAAAAAAAAAAAAAAAAAAAAAAAAAAAAAAAAAAAAAAAAAAAAAAAAAAAAAAAAAAAAAAAAAAAAAAAAAAAAAAAAAAAAAAAAAAAAAAAAAAAAAAAAAAAAAAAAAAAAAAAAAAAAAAAAAAAAAAAAAAAAAAAAAAAAAAAAAAAAAAAAAAAAAAAAAAAAAAAAAAAAAAAAAAAAAAAAAAAAAAAAAAAAAAAAAAAAAAAAAAAAAAAAAAAAAAAAAAAAAAAAAAAAAAAAAAAAAAAAAAAAAAAAAAAAAAAAAAAAAAAAAAAAAAAAAAAAAAAAAAAAAAAAAAAAAAAAAAAAAAAAAAAAAAAAAAAAAAAAAAAAAAAAAAAAAAAAAAAAAAAAAAAAAAAAAAAAAAAAAAAAAAAAAAAAAAAAAAAAAAAAAAAAAAAAAAAAAAAAAAAAAAAAAAAAAAAAAAAAAAAAAAAAAAAAAAAAAAAAAAAAAAAAAAAAAAAAAAAAAAAAAAAAAAAAAAAAAAAAAAAAAAAAAAAAAAAAAAAAAAAAAAAAAAAAAAAAAAAAAAAAAAAAAAAAAAAAAAAAAAAAAAAAAAAAAAAAAAAAAAAAAAAAAAAAAAAAAAAAAAAAAAAAAAAAAAAAAAAAAAAAAAAAAAAAAAAAAAAAAAAAAAAAAAAAAAAAAAAAAAAAAAAAAAAAAAAAAAAAAAAAAAAAAAAAAAAAAAAAAAAAAAAAAAAAAAAAAAAAAAAAAAAAAAAAAAAAAAAAAAAAAAAAAAAAAAAAAAAAAAAAAAAAAAAAAAAAAAAAAAAAAAAAAAAAAAAAAAAAAAAAAAAAAAAAAAAAAAAAAAAAAAAAAAAAAAAAAAAAAAAAAAAAAAAAAAAAAAAAAAAAAAAAAAAAAAAAAAAAAAAAAAAAAAAAAAAAAAAAAAAAAAAAAAAAAAAAAAAAAAAAAAAAAAAAAAAAAAAAAAAAAAAAAAAAAAAAAAAAAAAAAAAAAAAAAAAAAAAAAAAAAAAAAAAAAAAAAAAAAAAAAAAAAAAAAAAAAAAAAAAAAAAAAAAAAAAAAAAAAAAAAAAAAAAAAAAAAAAAAAAAAAAAAAAAAAAAAAAAAAAAAAAAAAAAAAAAAAAAAAAAAAAAAAAAAAAAAAAAAAAAAAAAAAAAAAAAAAAAAAAAAAAAAAAAAAAAAAAAAAAAAAAAAAAAAAAAAAAAAAAAAAAAAAAAAAAAAAAAAAAAAAAAAAAAAAAAAAAAAAAAAAAAAAAAAAAAAAAAAAAAAAAAAAAAAAAAAAAAAAAAAAAAAAAAAAAAAAAAAAAAAAAAAAAAAAAAAAAAAAAAAAAAAAAPZYQAtfC3UDhsARg8YJfMG4MtyYtxLjd4GTugMBBuWzO0pmTZKj+DluPxoUGePXfsD0xUSPbQkhw1hITUkZIEVUvXs=</c2pa:manifest></metadata><ellipse cx="150" cy="268" rx="80" ry="9" fill="#000" opacity=".13"/><path d="M80 66q0-10 10-10h120q10 0 10 10v186q0 12-12 12H92q-12 0-12-12z" fill="#7A5A1E"/><path d="M80 66q0-10 10-10h120q10 0 10 10v16H80z" fill="#584116"/><path d="M88 59v20M96 59v20M104 59v20M112 59v20M120 59v20M128 59v20M136 59v20M144 59v20M152 59v20M160 59v20M168 59v20M176 59v20M184 59v20M192 59v20M200 59v20M208 59v20" stroke="#7A5A1E" stroke-opacity=".55" stroke-width="2"/><path d="M92 92v158" stroke="#fff" stroke-opacity=".18" stroke-width="8" stroke-linecap="round"/><rect x="95" y="94" width="110" height="90" rx="10" fill="#fff" fill-opacity=".96"/><rect x="187" y="102" width="11" height="11" fill="none" stroke="#0a8a3a" stroke-width="1.6"/><circle cx="192.5" cy="107.5" r="3" fill="#0a8a3a"/><text x="150" y="122" text-anchor="middle" font-size="9.5" font-weight="600" fill="#7A5A1E">Sunmill</text><text x="150" y="145" text-anchor="middle" font-size="18" font-weight="800" fill="#17261E">Soya</text><text x="150" y="164" text-anchor="middle" font-size="12" font-weight="600" fill="#5E6F65">Granules</text><clipPath id="k93564"><rect x="95" y="194" width="110" height="60" rx="8"/></clipPath><g clip-path="url(#k93564)"><rect x="95" y="194" width="110" height="60" fill="#b4925c"/><circle cx="167.5" cy="239.5" r="2.9" fill="#CDA668" /><circle cx="130.8" cy="234.5" r="2.8" fill="#CDA668" /><circle cx="106.0" cy="224.3" r="3.5" fill="#CDA668" /><circle cx="139.1" cy="233.9" r="3.8" fill="#CDA668" /><circle cx="165.8" cy="228.4" r="2.8" fill="#CDA668" /><circle cx="122.0" cy="232.8" r="2.8" fill="#CDA668" /><circle cx="163.4" cy="212.1" r="3.0" fill="#CDA668" /><circle cx="116.0" cy="251.2" r="2.2" fill="#CDA668" /><circle cx="135.6" cy="195.1" r="3.0" fill="#CDA668" /><circle cx="158.0" cy="248.9" r="2.5" fill="#CDA668" /><circle cx="119.0" cy="197.6" r="3.4" fill="#CDA668" /><circle cx="174.5" cy="246.2" r="2.7" fill="#CDA668" /><circle cx="150.3" cy="239.6" r="2.9" fill="#CDA668" /><circle cx="202.2" cy="202.9" r="3.2" fill="#CDA668" /><circle cx="156.1" cy="221.0" r="2.3" fill="#CDA668" /><circle cx="167.7" cy="199.0" r="2.9" fill="#CDA668" /><circle cx="173.0" cy="221.8" r="3.8" fill="#CDA668" /><circle cx="107.8" cy="194.5" r="2.3" fill="#CDA668" /><circle cx="127.9" cy="202.1" r="2.8" fill="#CDA668" /><circle cx="169.1" cy="209.6" r="2.2" fill="#CDA668" /><circle cx="167.3" cy="241.8" r="3.3" fill="#CDA668" /><circle cx="168.3" cy="204.0" r="3.1" fill="#CDA668" /><circle cx="107.9" cy="241.0" r="2.4" fill="#CDA668" /><circle cx="142.0" cy="197.9" r="3.7" fill="#CDA668" /><circle cx="96.4" cy="219.6" r="2.4" fill="#CDA668" /><circle cx="126.9" cy="211.3" r="2.9" fill="#CDA668" /><circle cx="169.4" cy="197.7" r="2.3" fill="#CDA668" /><circle cx="159.7" cy="204.0" r="3.1" fill="#CDA668" /><circle cx="143.6" cy="195.2" r="2.5" fill="#CDA668" /><circle cx="167.0" cy="196.3" r="3.1" fill="#CDA668" /><circle cx="165.7" cy="232.2" r="3.7" fill="#CDA668" /><circle cx="185.5" cy="208.0" r="3.4" fill="#CDA668" /><circle cx="162.3" cy="208.6" r="3.0" fill="#CDA668" /><circle cx="141.9" cy="199.1" r="3.0" fill="#CDA668" /><circle cx="170.2" cy="204.4" r="2.5" fill="#CDA668" /><circle cx="182.9" cy="249.6" r="2.3" fill="#CDA668" /><circle cx="115.9" cy="239.7" r="3.1" fill="#CDA668" /><circle cx="125.0" cy="199.6" r="3.8" fill="#CDA668" /><circle cx="146.1" cy="214.4" r="3.5" fill="#CDA668" /><circle cx="115.0" cy="249.1" r="2.7" fill="#CDA668" /><circle cx="187.5" cy="208.6" r="2.4" fill="#CDA668" /><circle cx="189.5" cy="238.0" r="3.2" fill="#CDA668" /><circle cx="166.9" cy="242.2" r="2.3" fill="#CDA668" /><circle cx="165.3" cy="246.3" r="2.3" fill="#CDA668" /><circle cx="120.7" cy="215.3" r="3.8" fill="#CDA668" /><circle cx="188.9" cy="234.1" r="2.3" fill="#CDA668" /><circle cx="195.8" cy="207.8" r="2.1" fill="#CDA668" /><circle cx="187.1" cy="221.4" r="2.2" fill="#CDA668" /><circle cx="98.7" cy="239.8" r="3.2" fill="#CDA668" /><circle cx="196.4" cy="228.0" r="2.4" fill="#CDA668" /><circle cx="196.1" cy="211.2" r="2.3" fill="#CDA668" /><circle cx="143.6" cy="214.2" r="3.6" fill="#CDA668" /><circle cx="194.8" cy="202.0" r="3.5" fill="#CDA668" /><circle cx="175.4" cy="199.7" r="2.8" fill="#CDA668" /><circle cx="131.3" cy="232.3" r="2.1" fill="#CDA668" /><circle cx="108.4" cy="204.7" r="2.3" fill="#CDA668" /><circle cx="152.4" cy="202.0" r="2.3" fill="#CDA668" /><circle cx="199.2" cy="249.2" r="2.9" fill="#CDA668" /><circle cx="184.7" cy="251.2" r="2.9" fill="#CDA668" /><circle cx="154.6" cy="233.1" r="3.2" fill="#CDA668" /><circle cx="154.8" cy="219.8" r="2.7" fill="#CDA668" /><circle cx="121.2" cy="236.4" r="2.1" fill="#CDA668" /><circle cx="99.5" cy="247.9" r="2.2" fill="#CDA668" /><circle cx="135.6" cy="219.2" r="3.8" fill="#CDA668" /><circle cx="165.4" cy="235.4" r="2.2" fill="#CDA668" /><circle cx="124.6" cy="201.5" r="3.5" fill="#CDA668" /><circle cx="169.1" cy="202.4" r="3.1" fill="#CDA668" /><circle cx="124.8" cy="203.1" r="3.6" fill="#CDA668" /><circle cx="147.4" cy="228.8" r="3.8" fill="#CDA668" /><circle cx="172.9" cy="244.3" r="2.8" fill="#CDA668" /><circle cx="136.9" cy="214.6" r="3.1" fill="#CDA668" /><circle cx="195.4" cy="224.8" r="3.6" fill="#CDA668" /><circle cx="174.3" cy="239.9" r="3.4" fill="#CDA668" /><circle cx="119.2" cy="224.8" r="3.0" fill="#CDA668" /><circle cx="186.2" cy="204.6" r="3.4" fill="#CDA668" /><circle cx="200.9" cy="204.3" r="3.4" fill="#CDA668" /><circle cx="99.3" cy="248.8" r="3.9" fill="#CDA668" /><circle cx="147.1" cy="243.2" r="3.6" fill="#CDA668" /><circle cx="170.3" cy="212.4" r="3.5" fill="#CDA668" /><circle cx="104.5" cy="241.5" r="2.4" fill="#CDA668" /></g><rect x="95" y="194" width="110" height="60" rx="8" fill="none" stroke="#fff" stroke-opacity=".7" stroke-width="2"/></svg>
